<svg width="352" height="111" viewBox="0 0 352 111" fill="none" xmlns="http://www.w3.org/2000/svg">
<g clip-path="url(#clip0_7503_1651)">
<path d="M41.62 59.3599L33.68 55.7599L33.71 52.9299C33.71 51.0199 32.03 49.3899 28.67 48.0599C26.34 47.1399 23.79 46.6899 21.01 46.6899C18.23 46.6899 15.68 47.1499 13.35 48.0599C9.99 49.4199 8.31 51.0399 8.31 52.9299V89.9699C8.31 91.8799 9.99 93.5099 13.35 94.8399C15.68 95.7599 18.23 96.2099 21.01 96.2099C23.79 96.2099 26.34 95.7499 28.67 94.8399C32.03 93.4799 33.71 91.8599 33.71 89.9699V79.9799H34.13L42.04 83.7299V89.9699C42.04 95.0499 38.89 98.8899 32.59 101.5C29.07 102.97 25.21 103.71 21.02 103.71C16.83 103.71 12.97 102.97 9.45 101.5C3.15 98.8799 0 95.0399 0 89.9599V52.9199C0 47.8399 3.15 43.9999 9.45 41.3899C12.97 39.9199 16.83 39.1799 21.02 39.1799C25.21 39.1799 29.07 39.9199 32.59 41.3899C38.89 43.9999 42.04 47.8399 42.04 52.9199V59.3599H41.62Z" fill="#81FE88"/>
<path d="M42.03 83.7198C42.03 83.7198 34.86 80.6198 33.68 77.0598L33.71 81.3798L42.03 83.7198Z" fill="#81FE88"/>
<path d="M33.56 61.0299L41.5 64.6299L41.47 67.4599C41.47 69.3699 43.15 70.9999 46.51 72.3299C48.84 73.2499 51.39 73.6999 54.17 73.6999C56.94 73.6999 59.5 73.2399 61.83 72.3299C65.19 70.9699 66.87 69.3499 66.87 67.4599V30.4299C66.87 28.5199 65.19 26.8899 61.83 25.5599C59.5 24.6399 56.95 24.1899 54.17 24.1899C51.4 24.1899 48.84 24.6499 46.51 25.5599C43.15 26.9199 41.47 28.5399 41.47 30.4299V40.4199H41.05L33.14 36.6699V30.4299C33.14 25.3499 36.29 21.5099 42.59 18.8999C46.11 17.4299 49.97 16.6899 54.16 16.6899C58.35 16.6899 62.21 17.4299 65.73 18.8999C72.03 21.5099 75.18 25.3499 75.18 30.4299V67.4699C75.18 72.5499 72.03 76.3899 65.73 78.9999C62.21 80.4699 58.35 81.2099 54.16 81.2099C49.97 81.2099 46.11 80.4699 42.59 78.9999C36.29 76.3899 33.14 72.5499 33.14 67.4699V61.0299H33.56Z" fill="#81FE88"/>
<path d="M33.15 36.6699C33.15 36.6699 40.32 39.7699 41.5 43.3299L41.47 39.0099L33.15 36.6699Z" fill="#81FE88"/>
<path d="M123.63 87.9201V95.5801C123.63 98.6701 121.44 101.09 117.06 102.82C114.69 103.73 112.02 104.19 109.04 104.19C106.06 104.19 103.39 103.73 101.02 102.82C96.64 101.09 94.45 98.6701 94.45 95.5801V72.7301C94.45 69.6401 96.64 67.2201 101.02 65.4901C103.39 64.5801 106.06 64.1201 109.04 64.1201C112.02 64.1201 114.69 64.5801 117.06 65.4901C121.44 67.2201 123.63 69.6401 123.63 72.7301V77.2301L116.95 80.3901H116.6V73.9601C116.6 72.7901 115.87 71.9101 114.4 71.3201C112.94 70.7301 111.15 70.4401 109.04 70.4401C106.93 70.4401 105.14 70.7301 103.68 71.3201C102.22 71.9101 101.48 72.7801 101.48 73.9601V94.3501C101.48 95.5201 102.21 96.4001 103.68 96.9901C105.14 97.5801 106.93 97.8701 109.04 97.8701C111.15 97.8701 112.94 97.5801 114.4 96.9901C115.86 96.4001 116.6 95.5301 116.6 94.3501V91.0801L123.28 87.9201H123.63Z" fill="#E1E1E1"/>
<path d="M133.82 95.5801V72.7301C133.82 69.6401 136.01 67.2201 140.39 65.4901C142.76 64.5801 145.43 64.1201 148.41 64.1201C151.39 64.1201 154.06 64.5801 156.43 65.4901C160.81 67.2201 163 69.6401 163 72.7301V95.5801C163 98.6701 160.81 101.09 156.43 102.82C154.06 103.73 151.39 104.19 148.41 104.19C145.43 104.19 142.76 103.73 140.39 102.82C136.01 101.09 133.82 98.6701 133.82 95.5801ZM140.85 94.3501C140.85 95.5201 141.58 96.4001 143.05 96.9901C144.52 97.5801 146.3 97.8701 148.41 97.8701C150.52 97.8701 152.31 97.5801 153.77 96.9901C155.23 96.4001 155.97 95.5301 155.97 94.3501V73.9601C155.97 72.7901 155.24 71.9101 153.77 71.3201C152.3 70.7301 150.52 70.4401 148.41 70.4401C146.3 70.4401 144.51 70.7301 143.05 71.3201C141.59 71.9101 140.85 72.7801 140.85 73.9601V94.3501Z" fill="#E1E1E1"/>
<path d="M173.18 104.9V72.7301C173.18 69.5901 175.37 67.1801 179.75 65.4901C182.12 64.5801 184.79 64.1201 187.77 64.1201C190.75 64.1201 193.42 64.5801 195.79 65.4901C200.17 67.1801 202.36 69.5901 202.36 72.7301V101.73L195.68 101.89H195.33V73.9501C195.33 72.7801 194.6 71.9001 193.13 71.3101C191.67 70.7201 189.88 70.4301 187.77 70.4301C185.66 70.4301 183.87 70.7201 182.41 71.3101C180.95 71.9001 180.21 72.7701 180.21 73.9501V101.72L173.53 104.88H173.18V104.9Z" fill="#E1E1E1"/>
<path d="M212.55 104.9V72.7301C212.55 69.5901 214.74 67.1801 219.12 65.4901C221.49 64.5801 224.16 64.1201 227.14 64.1201C230.12 64.1201 232.79 64.5801 235.16 65.4901C239.54 67.1801 241.73 69.5901 241.73 72.7301V101.73L235.05 104.89H234.7V73.9501C234.7 72.7801 233.97 71.9001 232.5 71.3101C231.04 70.7201 229.25 70.4301 227.14 70.4301C225.03 70.4301 223.24 70.7201 221.78 71.3101C220.32 71.9001 219.58 72.7701 219.58 73.9501V101.72L212.9 104.88H212.55V104.9Z" fill="#E1E1E1"/>
<path d="M281.1 87.9201V95.5801C281.1 98.6701 278.91 101.09 274.53 102.82C272.16 103.73 269.49 104.19 266.51 104.19C263.53 104.19 260.86 103.73 258.49 102.82C254.11 101.09 251.92 98.6701 251.92 95.5801V72.7301C251.92 69.6401 254.11 67.2201 258.49 65.4901C260.86 64.5801 263.53 64.1201 266.51 64.1201C269.49 64.1201 272.16 64.5801 274.53 65.4901C278.91 67.2201 281.1 69.6401 281.1 72.7301V77.2301L258.95 94.2601C258.95 95.4601 259.68 96.3601 261.15 96.9601C262.61 97.5601 264.4 97.8601 266.51 97.8601C268.62 97.8601 270.41 97.5701 271.87 96.9801C273.33 96.3901 274.07 95.5201 274.07 94.3401V91.0701L280.75 87.9101H281.1V87.9201ZM258.95 86.9401L274.07 75.3401V74.4301C274.07 73.1001 273.34 72.1101 271.87 71.4501C270.4 70.7901 268.62 70.4601 266.51 70.4601C264.4 70.4601 262.61 70.7501 261.15 71.3401C259.69 71.9301 258.95 72.8001 258.95 73.9801V86.9501V86.9401Z" fill="#E1E1E1"/>
<path d="M320.46 87.9201V95.5801C320.46 98.6701 318.27 101.09 313.89 102.82C311.52 103.73 308.85 104.19 305.87 104.19C302.89 104.19 300.22 103.73 297.85 102.82C293.47 101.09 291.28 98.6701 291.28 95.5801V72.7301C291.28 69.6401 293.47 67.2201 297.85 65.4901C300.22 64.5801 302.89 64.1201 305.87 64.1201C308.85 64.1201 311.52 64.5801 313.89 65.4901C318.27 67.2201 320.46 69.6401 320.46 72.7301V77.2301L313.78 80.3901H313.43V73.9601C313.43 72.7901 312.7 71.9101 311.23 71.3201C309.76 70.7301 307.98 70.4401 305.87 70.4401C303.76 70.4401 301.97 70.7301 300.51 71.3201C299.05 71.9101 298.31 72.7801 298.31 73.9601V94.3501C298.31 95.5201 299.04 96.4001 300.51 96.9901C301.98 97.5801 303.76 97.8701 305.87 97.8701C307.98 97.8701 309.77 97.5801 311.23 96.9901C312.69 96.4001 313.43 95.5301 313.43 94.3501V91.0801L320.11 87.9201H320.46Z" fill="#E1E1E1"/>
<path d="M335.29 104.9V71.22H326.25V70.87L329.1 64.82H335.29V52.16L341.97 49H342.32V64.82H351.36V65.17L348.51 71.22H342.32V101.74L335.64 104.9H335.29Z" fill="#E1E1E1"/>
<path d="M123.62 38.9201V46.5801C123.62 49.6701 121.43 52.0901 117.05 53.8201C114.68 54.7301 112.01 55.1901 109.03 55.1901C106.05 55.1901 103.38 54.7301 101.01 53.8201C96.63 52.0901 94.44 49.6701 94.44 46.5801V23.7301C94.44 20.6401 96.63 18.2201 101.01 16.4901C103.38 15.5801 106.05 15.1201 109.03 15.1201C112.01 15.1201 114.68 15.5801 117.05 16.4901C121.43 18.2201 123.62 20.6401 123.62 23.7301V28.2301L116.94 31.3901H116.59V24.9601C116.59 23.7901 115.86 22.9101 114.39 22.3201C112.93 21.7301 111.14 21.4401 109.03 21.4401C106.92 21.4401 105.13 21.7301 103.67 22.3201C102.21 22.9101 101.47 23.7801 101.47 24.9601V45.3501C101.47 46.5201 102.2 47.4001 103.67 47.9901C105.13 48.5801 106.92 48.8701 109.03 48.8701C111.14 48.8701 112.93 48.5801 114.39 47.9901C115.85 47.4001 116.59 46.5301 116.59 45.3501V42.0801L123.27 38.9201H123.62Z" fill="#888888"/>
<path d="M133.81 46.5801V23.7301C133.81 20.6401 136 18.2201 140.38 16.4901C142.75 15.5801 145.42 15.1201 148.4 15.1201C151.38 15.1201 154.05 15.5801 156.42 16.4901C160.8 18.2201 162.99 20.6401 162.99 23.7301V46.5801C162.99 49.6701 160.8 52.0901 156.42 53.8201C154.05 54.7301 151.38 55.1901 148.4 55.1901C145.42 55.1901 142.75 54.7301 140.38 53.8201C136 52.0901 133.81 49.6701 133.81 46.5801ZM140.84 45.3501C140.84 46.5201 141.57 47.4001 143.04 47.9901C144.51 48.5801 146.29 48.8701 148.4 48.8701C150.51 48.8701 152.3 48.5801 153.76 47.9901C155.22 47.4001 155.96 46.5301 155.96 45.3501V24.9601C155.96 23.7901 155.23 22.9101 153.76 22.3201C152.29 21.7301 150.51 21.4401 148.4 21.4401C146.29 21.4401 144.5 21.7301 143.04 22.3201C141.58 22.9101 140.84 23.7801 140.84 24.9601V45.3501Z" fill="#888888"/>
<path d="M173.17 46.58V23.73C173.17 20.59 175.36 18.18 179.74 16.49C182.11 15.58 184.78 15.12 187.76 15.12C190.55 15.12 193.07 15.52 195.32 16.32V3.16L202 0H202.35V46.58C202.35 49.72 200.16 52.13 195.78 53.82C193.41 54.73 190.74 55.19 187.76 55.19C184.78 55.19 182.11 54.73 179.74 53.82C175.36 52.09 173.17 49.67 173.17 46.58ZM180.2 45.35C180.2 46.52 180.93 47.4 182.4 47.99C183.86 48.58 185.65 48.87 187.76 48.87C189.87 48.87 191.66 48.58 193.12 47.99C194.58 47.4 195.32 46.53 195.32 45.35V24.96C195.32 23.79 194.59 22.91 193.12 22.32C191.66 21.73 189.87 21.44 187.76 21.44C185.65 21.44 183.86 21.73 182.4 22.32C180.94 22.91 180.2 23.78 180.2 24.96V45.35Z" fill="#888888"/>
<path d="M243.48 38.9201V46.5801C243.48 49.6701 241.29 52.0901 236.91 53.8201C234.54 54.7301 231.87 55.1901 228.89 55.1901C225.91 55.1901 223.24 54.7301 220.87 53.8201C216.49 52.0901 214.3 49.6701 214.3 46.5801V23.7301C214.3 20.6401 216.49 18.2201 220.87 16.4901C223.24 15.5801 225.91 15.1201 228.89 15.1201C231.87 15.1201 234.54 15.5801 236.91 16.4901C241.29 18.2201 243.48 20.6401 243.48 23.7301V28.2301L221.33 45.2601C221.33 46.4601 222.06 47.3601 223.53 47.9601C224.99 48.5601 226.78 48.8601 228.89 48.8601C231 48.8601 232.79 48.5701 234.25 47.9801C235.71 47.3901 236.45 46.5201 236.45 45.3401V42.0701L243.13 38.9101H243.48V38.9201ZM221.33 37.9401L236.45 26.3401V25.4301C236.45 24.1001 235.72 23.1101 234.25 22.4501C232.79 21.7901 231 21.4601 228.89 21.4601C226.78 21.4601 224.99 21.7501 223.53 22.3401C222.07 22.9301 221.33 23.8001 221.33 24.9801V37.9501V37.9401Z" fill="#888888"/>
<path d="M212.57 100.13V100.94C212.57 105.56 202.3 105.11 202.3 100.94V100.13H195.29V102.17C195.29 105.3 197.48 107.71 201.85 109.39C205.46 110.78 209.39 110.79 213.03 109.39C217.4 107.71 219.58 105.3 219.58 102.17V100.13H212.57Z" fill="#81FE88"/>
</g>
<defs>
<clipPath id="clip0_7503_1651">
<rect width="351.36" height="110.44" fill="white"/>
</clipPath>
</defs>
</svg>
